{
	"asset":{
		"generator":"Khronos glTF Blender I/O v4.2.57",
		"version":"2.0"
	},
	"scene":0,
	"scenes":[
		{
			"name":"Scene",
			"nodes":[
				0
			]
		}
	],
	"nodes":[
		{
			"mesh":0,
			"name":"Cube"
		}
	],
	"meshes":[
		{
			"name":"Cube",
			"primitives":[
				{
					"attributes":{
						"POSITION":0,
						"NORMAL":1,
						"TEXCOORD_0":2,
						"TEXCOORD_1":3,
						"COLOR_0":4
					},
					"indices":5
				}
			]
		}
	],
	"accessors":[
		{
			"bufferView":0,
			"componentType":5126,
			"count":779,
			"max":[
				1.0219671726226807,
				1,
				1
			],
			"min":[
				-1,
				-1,
				-1.000000238418579
			],
			"type":"VEC3"
		},
		{
			"bufferView":1,
			"componentType":5126,
			"count":779,
			"type":"VEC3"
		},
		{
			"bufferView":2,
			"componentType":5126,
			"count":779,
			"type":"VEC2"
		},
		{
			"bufferView":3,
			"componentType":5126,
			"count":779,
			"type":"VEC2"
		},
		{
			"bufferView":4,
			"componentType":5123,
			"count":779,
			"normalized":true,
			"type":"VEC4"
		},
		{
			"bufferView":5,
			"componentType":5123,
			"count":2082,
			"type":"SCALAR"
		}
	],
	"bufferViews":[
		{
			"buffer":0,
			"byteLength":9348,
			"byteOffset":0,
			"target":34962
		},
		{
			"buffer":0,
			"byteLength":9348,
			"byteOffset":9348,
			"target":34962
		},
		{
			"buffer":0,
			"byteLength":6232,
			"byteOffset":18696,
			"target":34962
		},
		{
			"buffer":0,
			"byteLength":6232,
			"byteOffset":24928,
			"target":34962
		},
		{
			"buffer":0,
			"byteLength":6232,
			"byteOffset":31160,
			"target":34962
		},
		{
			"buffer":0,
			"byteLength":4164,
			"byteOffset":37392,
			"target":34963
		}
	],
	"buffers":[
		{
			"byteLength":41556,
			"uri":"vertex-pipeline.bin"
		}
	]
}
